<svg xmlns="http://www.w3.org/2000/svg" xmlns:xlink="http://www.w3.org/1999/xlink" viewBox="0 0 36.32 42.13"><defs><style>.cls-1{fill:#626182;}.cls-2{fill:url(#Degradado_sin_nombre_313);}.cls-3{opacity:0.63;}.cls-4{fill:url(#Nueva_muestra_de_degradado_9);}</style><linearGradient id="Degradado_sin_nombre_313" x1="1.53" y1="9.6" x2="34.79" y2="9.6" gradientUnits="userSpaceOnUse"><stop offset="0" stop-color="#3df7e3"/><stop offset="1" stop-color="#1e54c4"/></linearGradient><linearGradient id="Nueva_muestra_de_degradado_9" y1="27.42" x2="36.32" y2="27.42" gradientUnits="userSpaceOnUse"><stop offset="0" stop-color="#1e54c4"/><stop offset="1" stop-color="#510057"/></linearGradient></defs><title>Recurso 9</title><g id="Capa_2" data-name="Capa 2"><g id="COso"><path class="cls-1" d="M2.6,34c-1.43-.82-1.43-2.17,0-3l13-7.48a5.74,5.74,0,0,1,5.2,0l13,7.48c1.43.83,1.43,2.18,0,3l-13,7.48a5.74,5.74,0,0,1-5.2,0Z"/><path class="cls-2" d="M2.6,11.1c-1.43-.82-1.43-2.17,0-3l13-7.48a5.74,5.74,0,0,1,5.2,0l13,7.48c1.43.83,1.43,2.18,0,3l-13,7.49a5.8,5.8,0,0,1-5.2,0Z"/><g class="cls-3"><path class="cls-4" d="M0,14.56c0-1.65,1.17-2.32,2.6-1.5l13,7.49a5.8,5.8,0,0,0,5.2,0l13-7.49c1.43-.82,2.6-.15,2.6,1.5v15a5.77,5.77,0,0,1-2.6,4.5l-13,7.48a5.74,5.74,0,0,1-5.2,0L2.6,34A5.77,5.77,0,0,1,0,29.53Z"/></g></g></g></svg>