<svg xmlns="http://www.w3.org/2000/svg" xmlns:xlink="http://www.w3.org/1999/xlink" viewBox="0 0 36.32 43.16"><defs><style>.cls-1{fill:url(#Degradado_sin_nombre_11);}.cls-2{clip-path:url(#clip-path);}.cls-3{fill:url(#Degradado_sin_nombre_11-3);}</style><linearGradient id="Degradado_sin_nombre_11" x1="8.32" y1="4.82" x2="27.76" y2="38.49" gradientUnits="userSpaceOnUse"><stop offset="0.29" stop-color="#9827df"/><stop offset="0.52" stop-color="#2141f8"/><stop offset="0.56" stop-color="#234bf7"/><stop offset="0.63" stop-color="#2767f4"/><stop offset="0.72" stop-color="#2e94ee"/><stop offset="0.83" stop-color="#37d2e7"/><stop offset="0.89" stop-color="#3df7e3"/></linearGradient><clipPath id="clip-path"><path class="cls-1" d="M2.6,11.12c-1.43-.82-1.43-2.17,0-3l13-7.48a5.74,5.74,0,0,1,5.2,0l13,7.48c1.43.83,1.43,2.18,0,3l-13,7.49a5.8,5.8,0,0,1-5.2,0ZM0,30.55a5.77,5.77,0,0,0,2.6,4.5l13,7.48a5.74,5.74,0,0,0,5.2,0l13-7.48a5.77,5.77,0,0,0,2.6-4.5v-15c0-1.65-1.17-2.32-2.6-1.5l-13,7.49a5.8,5.8,0,0,1-5.2,0l-13-7.49c-1.43-.82-2.6-.15-2.6,1.5Z"/></clipPath><linearGradient id="Degradado_sin_nombre_11-3" x1="4.83" y1="-1.52" x2="31.49" y2="44.67" xlink:href="#Degradado_sin_nombre_11"/></defs><title>Recurso 39</title><g id="Capa_2" data-name="Capa 2"><g id="COso"><path class="cls-1" d="M2.6,11.12c-1.43-.82-1.43-2.17,0-3l13-7.48a5.74,5.74,0,0,1,5.2,0l13,7.48c1.43.83,1.43,2.18,0,3l-13,7.49a5.8,5.8,0,0,1-5.2,0ZM0,30.55a5.77,5.77,0,0,0,2.6,4.5l13,7.48a5.74,5.74,0,0,0,5.2,0l13-7.48a5.77,5.77,0,0,0,2.6-4.5v-15c0-1.65-1.17-2.32-2.6-1.5l-13,7.49a5.8,5.8,0,0,1-5.2,0l-13-7.49c-1.43-.82-2.6-.15-2.6,1.5Z"/><g class="cls-2"><rect class="cls-3" width="36.32" height="43.16" rx="3" ry="3"/></g></g></g></svg>