<svg version="1" xmlns="http://www.w3.org/2000/svg" width="682.667" height="682.667" viewBox="0 0 512.000000 512.000000"><path d="M239 45.4c-6.4 1.9-17.1 6.9-28.5 13.6-1.6.9-7.3 4-12.5 6.7-5.2 2.8-17.6 9.4-27.5 14.8-9.9 5.3-21.4 11.5-25.5 13.8-7.2 3.8-12.8 6.9-23.5 12.7-7 3.8-19 10.2-25.5 13.6-6.7 3.5-13.6 10-14.5 13.7-1.9 7.6 2.8 14.3 14.2 20.2 3.2 1.6 9.2 4.8 13.3 7.1 4.1 2.2 11.1 6 15.5 8.4 7.7 4.1 13.1 7.1 24 13 2.8 1.5 9.1 4.9 14 7.5 5 2.6 9.5 5.1 10 5.5.6.4 6 3.3 12 6.5 6.1 3.2 12.8 6.8 15 8 33.4 18.7 42.9 22.3 57.4 21.9 7.2-.2 9.8-.5 16.5-2 3.6-.8 12.5-4.9 23.1-10.6 4.4-2.4 12.1-6.6 17-9.3 5-2.6 16.2-8.7 25-13.5 8.8-4.8 19.4-10.5 23.5-12.7 4.1-2.2 9.5-5.1 12-6.5 2.5-1.4 7.9-4.3 12-6.5s10.4-5.6 14-7.6c3.6-1.9 10.3-5.5 15-8 13.6-7.3 18.5-13.5 16.6-21.2-.8-3.2-6.5-9.6-10.3-11.5-2.7-1.4-27.2-14.6-39.8-21.5-3.3-1.8-9.6-5.2-14-7.5-4.4-2.4-19.2-10.4-33-17.8-13.7-7.4-27.9-15.1-31.5-17-3.6-1.9-10.1-5.4-14.5-7.8-11.1-5.9-20-8.2-32.2-8.2-7.1 0-11.8.6-17.3 2.2z"/><path d="M75.9 178.9c-5 1.6-6.7 3.1-8.9 7.6-2.2 4.6-2.2 4.6-2.2 68.8 0 91.6.1 94.2 2.2 100.9 3.5 11.4 12.5 23.8 21.9 30.4 2.2 1.6 77 42.4 77.6 42.4.2 0 3.4 1.7 7.2 3.8 7.9 4.5 11.9 6.7 38.8 21.3 23.5 12.7 30.7 15.1 45 14.8 5.3-.1 11.9-1 16-2.1 7.5-2.1 10-3.3 55-27.8 2.8-1.5 23.7-12.7 46.5-25 22.8-12.2 43.9-23.8 46.9-25.7 7.7-5 14.2-11.8 18.9-19.8 7.7-13.2 7.5-10.3 7.5-97.5 0-77.9-.2-82.8-3.6-87.1-3.6-4.6-10.5-6.6-17-4.8-2.3.6-15.9 7.4-30.2 15.1-14.3 7.8-29.4 15.9-33.5 18.1-4.1 2.2-21.9 11.9-39.5 21.4-40.8 22.2-46.5 24.9-55 26.7-9.8 2-23.3 1.3-32.1-1.7-3.8-1.3-19.1-8.9-33.9-16.9-14.9-8-30.1-16.3-34-18.3-3.8-2.1-8.8-4.8-11-6-2.2-1.2-8-4.4-13-7-4.9-2.7-18-9.7-29-15.7s-22.2-12-25-13.3c-5.7-2.8-11.8-3.8-15.6-2.6z"/></svg>