<svg version="1" xmlns="http://www.w3.org/2000/svg" width="917.333" height="917.333" viewBox="0 0 688.000000 688.000000"><path d="M335.8.5c-.2.2-2.1.6-4.3.9-8.1 1.3-9.1 1.5-12 2.6-1.6.6-3.1 1.1-3.2 1.1-.2-.1-.5 0-.8 0-.3.1-.8.2-1.2.3-1.7.3-13.2 6.1-20.8 10.6-4.4 2.5-8.7 4.9-9.5 5.3-.8.4-2.2 1.1-3 1.7-2.9 1.9-27.2 16-27.6 16-.2 0-3.7 2-7.7 4.4-3.9 2.4-9.2 5.4-11.7 6.8-2.5 1.4-6.7 3.8-9.5 5.3-2.7 1.5-6.2 3.6-7.7 4.6-1.4 1.1-2.8 1.9-3.1 1.9-.3 0-8.7 4.7-18.6 10.5C185.2 78.3 176.6 83 176 83c-.5 0-1 .4-1 .9s-.8 1.1-1.7 1.5c-1 .3-3.4 1.5-5.3 2.7-1.9 1.1-5.3 3.1-7.5 4.2-2.2 1.2-4.2 2.4-4.5 2.7-.3.3-14.5 8.5-31.5 18.2-17.1 9.8-33 19.4-35.3 21.4-11.7 10-12.9 23.9-2.9 34.5 3.8 4 9.6 8.3 13.7 10.2.8.4 2.9 1.6 4.5 2.7 1.7 1.1 3.7 2.3 4.5 2.7.8.4 6.9 3.8 13.5 7.6 6.6 3.9 13.3 7.8 15 8.7 1.6 1 5.7 3.3 9 5.2 3.3 2 8 4.7 10.5 6 2.5 1.4 11.3 6.5 19.5 11.3 8.3 4.8 17.3 10 20 11.5 2.8 1.5 14.9 8.5 27 15.6 12.1 7 24.9 14.4 28.5 16.4 10.5 5.9 14 8 22.8 13.1 4.5 2.7 8.7 4.9 9.2 4.9.6 0 1 .3 1 .8 0 .4 1.3 1.3 3 2 1.6.7 4.5 2.4 6.5 3.7 1.9 1.4 3.5 2.2 3.5 1.9 0-.3 1.2.3 2.8 1.4 5 3.4 11.3 6 22.2 8.9 5.4 1.5 17.8 2.9 24.2 2.7 16.6-.5 30.1-4.3 44.8-12.8 4.1-2.4 9.1-5.3 11-6.3 1.9-1.1 8-4.6 13.5-7.8s15.9-9.1 23-13.2c7.2-4.2 13.9-8.1 15-8.8 1.1-.7 2.3-1.3 2.7-1.4.5-.1 3.2-1.7 6.2-3.6 3-1.9 5.8-3.5 6.1-3.5.3 0 3.1-1.6 6.1-3.5 3-1.9 5.6-3.5 5.8-3.5.3 0 4.9-2.6 10.3-5.8 5.4-3.2 10.5-6.1 11.3-6.5.8-.4 3.8-2.1 6.5-3.7 2.8-1.7 5.9-3.5 7-4 1.1-.6 3.4-1.9 5-2.9 3.4-2 27.3-15.9 33.2-19.2 2.1-1.2 9.4-5.4 16.3-9.4 15.3-8.9 19.8-11.5 23-13.1 4.5-2.3 10.9-8.5 13.5-12.9 7.8-13.2 1.7-26.4-17.5-37.4-13.1-7.6-13.9-8.1-17.7-10.2-2.1-1.2-7.8-4.4-12.6-7.2-17.4-10.2-20.2-11.8-21.9-12.4-1-.3-1.8-.9-1.8-1.4 0-.5-.5-.9-1-.9-.6 0-9-4.6-18.8-10.3-9.7-5.7-19.7-11.5-22.2-12.9-5-2.8-10.3-5.8-15.2-8.7-1.8-1-10.9-6.2-20.3-11.6-9.3-5.3-18.1-10.4-19.5-11.3-1.4-.9-2.8-1.5-3.2-1.4-.5.1-.8-.3-.8-.8 0-.6-.4-1-1-1-.5 0-3.3-1.4-6.2-3.1-2.9-1.8-6.9-4.1-8.8-5.2-1.9-1.1-4.8-2.8-6.5-3.8-1.6-1.1-3.6-2.2-4.4-2.6-.8-.3-6.2-3.4-12-6.8C384.9 9 372.2 3.6 365.6 2.6c-2.1-.4-4.3-.9-4.8-1.2-1-.6-24.4-1.5-25-.9z"/><path d="M70.8 219.6c-5.7 1.7-11.2 7.6-13.9 14.9-1.8 4.8-1.9 9.5-1.6 133.5.2 70.7.6 130 1 131.8 1 4.9 3.9 13.5 5 14.9.5.7.7 1.3.4 1.3-1.2 0 7.3 15.3 11.5 20.9 11 14.4 15.1 17.3 58.8 42.4 1.9 1.1 5.8 3.3 8.5 4.9 2.8 1.6 5.8 3.2 6.8 3.5.9.3 1.7.9 1.7 1.4 0 .5.4.9.9.9s4.4 2 8.5 4.5c4.2 2.5 7.9 4.5 8.1 4.5.4 0 12.4 7 15.5 9.1.8.5 2.3 1.2 3.3 1.5.9.4 1.7 1 1.7 1.5s.5.9 1.1.9c.9 0 18.7 10.1 43.9 24.9 5.2 3 9.7 5.6 10 5.6.3 0 1.6.8 3 1.7 5.5 3.5 15.2 8.8 16.1 8.8.5 0 .9.4.9 1 0 .5.4 1 .9 1 .9 0 9.7 4.9 16.1 8.9 1.4.8 2.7 1.6 3 1.6.3 0 2.4 1.3 4.7 2.8 2.4 1.5 4.4 2.7 4.6 2.7.2 0 4.2 2.1 8.8 4.8 14 7.9 25.7 11.2 41.9 11.7 22.8.8 34.2-2.9 64.7-21.2 4-2.4 7.5-4.3 7.8-4.3.3 0 2.2-1.1 4.3-2.3 2-1.3 5.7-3.5 8.2-4.9 2.5-1.4 14.9-8.5 27.5-15.8 41.5-23.9 48.7-28 49.5-28 .5 0 1-.4 1.2-.8.2-.5 2.8-2.2 5.8-3.9 3-1.6 13.2-7.4 22.5-12.8 9.4-5.4 18.5-10.6 20.2-11.6 33-18.6 45.1-26.2 53.2-33.4 4.2-3.8 13.1-14.9 13.1-16.4 0-.6.4-1.1.8-1.1 1.1 0 7.4-12.8 10.3-21l2.4-6.5.3-133.5c.3-147 .6-138.1-5.8-144.9-3.9-4-8.1-6.1-13.4-6.5-4.7-.4-14.6 1.2-14.6 2.4 0 .4-.6.7-1.2.7-.7 0-5.7 2.5-11 5.7-5.4 3.1-10.2 5.6-10.8 5.6-.5 0-1 .4-1 .9s-.8 1.1-1.7 1.5c-1 .3-4 1.9-6.8 3.6-2.7 1.6-7 4.1-9.5 5.5-7 3.9-11.9 6.7-19.5 11.2-3.8 2.2-8.9 5.1-11.1 6.4-13.6 7.8-54.1 31.2-55.4 32-8.6 5.1-19.1 10.9-19.9 10.9-.5 0-1.1.3-1.3.8-.4 1-16.5 10.2-17.8 10.2-.5 0-1 .4-1 1 0 .5-.4 1-.9 1-.4 0-5.8 2.9-11.9 6.4-6.1 3.6-13.1 7.6-15.4 8.9-2.4 1.3-5.9 3.4-7.8 4.5-5.9 3.6-19.6 10.2-21.2 10.2-.8 0-1.9.5-2.6 1.2-.7.7-1.2.9-1.2.6 0-.3-2.9.2-6.5 1.2-4.9 1.3-9.7 1.7-19.7 1.5-7.3-.1-14.6-.5-16.3-.8-8.3-1.8-22.3-6.7-26.2-9.3-1.2-.7-3.9-2.3-6-3.5-5.2-2.9-22.8-13.1-28.3-16.3-2.5-1.5-5.3-2.9-6.2-3.3-1-.3-1.8-.9-1.8-1.4 0-.5-.5-.9-1-.9-.6 0-7.6-3.8-15.6-8.5-8.1-4.7-14.8-8.5-15-8.5-.3 0-2.3-1.2-4.6-2.6-6.2-3.9-22.7-13.4-23.3-13.4-.3 0-1.8-.8-3.3-1.9-3.6-2.5-20.1-12.1-20.7-12.1-.3 0-2.4-1.2-4.8-2.7-7.4-4.6-21-12.3-21.8-12.3-.5 0-.9-.5-.9-1 0-.6-.3-.9-.7-.8-.5.1-1.9-.5-3.3-1.3-5.6-3.6-13.1-7.9-13.5-7.9-.3 0-2.4-1.2-4.8-2.7-2.3-1.5-4.4-2.8-4.7-2.8-.3 0-5-2.7-10.5-6-12.2-7.2-22.5-12.6-22.5-11.8 0 .3-.6.1-1.2-.5-2.3-1.8-12-2.2-17-.6z"/></svg>